
<svg xmlns="http://www.w3.org/2000/svg" version="1.1" xmlns:xlink="http://www.w3.org/1999/xlink" preserveAspectRatio="none" x="0px" y="0px" width="486px" height="552px" viewBox="0 0 486 552">
<defs>
<g id="Layer1_0_MEMBER_0_FILL">
<path fill="#000000" stroke="none" d="
M 327.75 174.3
Q 327.15 157 325.2 146 318.85 110.15 299.7 79.6 280.6 49.05 253.6 31.5 240.6 23.1 224.95 16.7 209.05 10.15 194 7.1 183.95 5 169 4.5 154.1 3.95 145 5.4 131.05 7.65 120.05 11.25 109.2 14.8 96.6 21.2 62.75 38.6 39.25 68 15.65 97.4 6 134.4 2.4 148.15 1.45 156.35 0.55 164.45 0.6 181 0.6 197.95 2.2 210.4 3.8 222.85 8 238.6 18.2 276.95 40.75 321.55 63.3 366.05 90.7 402 105.2 420.95 110.1 425.9 114.95 430.8 120.3 432 125.55 433.2 129.7 432.05 133.85 430.9 138.2 427 142.5 423.25 144.35 419.45 146.2 415.65 146.2 410.5 146.3 405 143.45 400.1 140.6 395.1 127.9 378.5 103.25 346.35 91.45 327.4 79.45 308.25 69.5 285 57.7 257.5 49.9 224.1 42.05 190.55 43.4 173.2 43.95 166 46.25 154.55 48.6 143.05 51 136 56.85 118.55 69.15 101.3 81.45 84.1 96 73 103.05 67.75 108.95 63.9 115.05 60 116.3 60 116.75 60 118.1 59.4 119.5 58.8 120.8 58 126.2 54.7 135.35 52.75 144.45 50.75 156.2 50.3 168.4 49.85 176.3 50.7 184.4 51.55 195.9 54.6 228.4 63.1 251.45 90.75 274.55 118.4 281.6 157.3 283.25 166 283.25 181.1 283.25 196.15 281.6 206.5 275.85 244.6 254 289.75 232.2 334.75 191.8 392.2 187.5 398.3 186.5 400.65 185.5 402.95 185.2 407.4 184.85 412.85 186.25 416.6 187.65 420.35 191.4 424.1 195.05 427.75 198.3 429.1 201.45 430.4 206.5 430.4 213.7 430.35 218 427.2 222.3 424.05 230.3 413 273.2 354 297.3 301.35 321.3 248.85 327.1 201.7 328.3 191.55 327.75 174.3 Z"/>
</g>

<g id="Layer1_0_MEMBER_1_FILL">
<path fill="#000000" stroke="none" d="
M 218 128.9
Q 212.55 123.4 209.15 120.9 205.8 118.5 199 115.1 194.55 112.95 189.8 111.05 184.95 109.1 182.5 108.5 177.6 107.35 168.85 106.75 160.1 106.1 156.5 106.6 148.65 107.65 143.15 109.35 137.7 111 130.1 114.7 122.4 118.35 119.1 120.7 115.8 123.05 110.1 128.9 97.35 141.7 91.9 155.6 86.5 169.45 87.3 187 88.15 204 95.35 218.45 102.55 232.85 115.4 243.2 131.8 256.4 152.1 259.5 171.35 262.4 189.9 255.75 208.45 249.1 221.4 234.65 235.15 219.4 239.4 198.8 241.65 187.95 240.65 176.45 239.7 165 235.7 155 232.55 147.3 228.6 141.5 224.65 135.6 218 128.9
M 172.85 152.15
Q 175.6 152.7 178.5 154.2 188.6 159.5 193.6 170.5 198.95 182.2 194.4 194.55 189.9 206.95 178.2 212.7 174.5 214.5 172 215 169.45 215.5 164 215.5 158.55 215.5 156 215 153.5 214.5 149.8 212.7 138.1 206.95 133.6 194.55 129.1 182.2 134.4 170.5 137.5 163.7 142.75 158.9 148.05 154.15 155 151.9 156.05 151.55 159.15 151.4 162.15 151.25 165.5 151.4 170.2 151.55 172.85 152.15 Z"/>
</g>

<g id="Layer0_0_MEMBER_0_FILL">
<path fill="#000000" stroke="none" d="
M 326.9 191.95
Q 326.9 181.45 326.15 176.9 324.55 167 316.95 159.25 309.35 151.45 299.5 149.65 297.8 149.35 291.1 149.1 284.15 148.85 276.6 148.85
L 257.8 148.85 247.55 121.15
Q 243.4 109.75 239.8 100.5 236.2 91.3 235.35 89.75 231.35 82.4 223.05 81.8 218.85 81.5 215.8 82.5 212.75 83.5 209.8 86.15 207 88.65 205.85 91.3 204.7 93.95 204.7 97.85 204.7 100.3 206.4 105.6 208.15 111 213.5 125.05 222.25 148.3 222.25 148.55 222.25 148.85 165 148.85 107.7 148.85 107.7 148.55 107.7 148.3 116.45 125.05 123.45 106.65 124.7 101.1 126 95.6 124.25 91.35 123.05 88.6 119.75 85.85 116.35 83.05 112.95 82.1 109.4 81 107.95 81 106.5 80.95 103.8 81.95 97.15 84.35 94.4 89.9 93.6 91.65 90.2 100.6 86.3 110.7 82.5 121.15
L 72.25 148.85 53.05 148.85
Q 45.4 148.85 38.25 149.1 31.35 149.35 29.4 149.65 20.4 151.1 13.4 157.25 6.45 163.35 3.4 172.45 2.6 174.9 2.45 178.75 2.25 182.55 2.4 193.4
L 2.65 210.45 5.55 216.25
Q 8.25 221.7 12.75 225.95 17.2 230.2 21.9 231.75 22 231.75 34.65 281.4 39.65 301.25 44 317.7 48.15 333.45 48.8 335.25 51.25 341.75 57.35 347.55 63.45 353.25 70.55 355.75 73.3 356.6 87.15 356.8 101.55 357.05 160.4 357.25 246.35 357.5 252.45 356.65 258.8 355.85 263.7 353.4 268.55 351 273.15 346.4 276.75 342.85 278.05 340.85 280 337.8 281.7 332.3 284.15 324.25 292.75 281.85
L 302.85 232 307.45 229.9
Q 314.5 226.7 319.65 220.3 324.75 213.85 326.1 206.6 326.9 202.45 326.9 191.95
M 55.3 235.7
Q 55 234.8 70.25 234.6 86.15 234.4 161.1 234.4 204.8 234.4 236.15 234.55 267.35 234.75 267.35 234.95 267.35 235.7 260 280
L 252.6 324.55 77.3 324.55 55.3 235.7
M 295.6 201.55
L 35.1 201.95 35.1 181.7 295.6 181.7 295.6 201.55 Z"/>
</g>
</defs>

<g transform="matrix( 1, 0, 0, 1, 719.1,97) ">
<use xlink:href="#Layer1_0_MEMBER_0_FILL"/>
</g>

<g transform="matrix( 1, 0, 0, 1, 719.1,97) ">
<use xlink:href="#Layer1_0_MEMBER_1_FILL"/>
</g>

<g transform="matrix( 1.19439697265625, 0, 0, 1.19439697265625, 46.4,14.25) ">
<use xlink:href="#Layer0_0_MEMBER_0_FILL"/>
</g>
</svg>
