
<svg xmlns="http://www.w3.org/2000/svg" version="1.1" xmlns:xlink="http://www.w3.org/1999/xlink" preserveAspectRatio="none" x="0px" y="0px" width="486px" height="552px" viewBox="0 0 486 552">
<defs>
<g id="Layer0_0_FILL">
<path fill="#FFFFFF" stroke="none" d="
M 355.1 90.6
Q 351.9 83.15 345.45 78.15 338.65 72.85 329.75 71.6 324.15 70.85 319.2 71.7 314.25 72.6 308.85 75.3 306.1 76.65 304.15 78.35 300.75 81.25 291.25 91.1 278.25 104.5 193.45 194.5 135.15 256.45 133.15 259.7 130.15 264.1 129 269.85 127.9 275.6 128.95 281.1 129.4 283.6 130.35 286.5 131.3 289.35 132.15 290.8 133.95 293.7 216.1 381.25 298.25 468.8 303.15 473 308.45 477.55 315.5 479.45 322.5 481.4 330.05 480.4 338.1 479.25 344.95 474.25 351.8 469.25 354.95 462.2 357.65 456.3 357.5 448.7 357.4 441.1 354.55 436 353.25 433.65 333.15 411.75 312.75 389.45 278.85 353.5
L 205.95 276 210.25 271.5
Q 225.1 256.15 287.1 189.9 348.7 124.05 350.95 121.2 356.4 114.35 357.4 106 358.35 98.1 355.1 90.6 Z"/>
</g>
</defs>

<g transform="matrix( 1, 0, 0, 1, 0,0) ">
<use xlink:href="#Layer0_0_FILL"/>
</g>
</svg>
