
<svg xmlns="http://www.w3.org/2000/svg" version="1.1" xmlns:xlink="http://www.w3.org/1999/xlink" preserveAspectRatio="none" x="0px" y="0px" width="486px" height="552px" viewBox="0 0 486 552">
<defs>
<g id="Layer0_0_MEMBER_0_FILL">
<path fill="#000000" stroke="none" d="
M 199.5 68
Q 197.2 65.6 190.8 62.75 184.4 59.9 151 46.3 129.15 37.45 121.7 35.05 114.4 32.7 112 33.7
L 78.5 47.3
Q 41.6 62.2 35.7 65.7 31.55 68.15 30.3 70.55 29.55 72.05 29.2 76.3 28.6 83.45 32.45 87.9 36.3 92.35 43.2 92.4
L 48 92.5 48 126.8
Q 48 149.45 48.3 155.9 48.6 162.4 49.7 164.7 51.35 168.2 54.95 169.7 58.55 171.2 64.4 170.8 69.25 170.45 71.15 168.95 73 167.45 73 164 73 161.3 71.05 159.7 69.1 158.1 65.5 157.8
L 61.5 157.5 61.3 123
Q 61.15 108.55 61.3 98.3 61.45 87.85 61.8 87.4 62.25 86.65 88.25 75.85 114.25 65.1 115.7 65 116.2 64.9 143.3 75.7
L 170 86.4 170 158 166.1 158
Q 161.45 158 159.3 161.05 157.15 164.1 159.4 167.5 160.9 169.75 163.6 170.5 166.3 171.25 171.6 170.8 174.85 170.5 176.55 169.85 178.25 169.2 179.8 167.6
L 182.5 165 183.5 92.8 188.5 92.6
Q 195.55 92.4 199.5 87.95 203.4 83.5 202.8 76.3 202.5 73.2 201.85 71.5 201.15 69.7 199.5 68
M 189.7 78.4
Q 189.2 79.65 183.7 77.7 178.3 75.75 147.3 63.1 120.2 52 116 52 111.9 52 78.8 65.5 45.6 79 43.9 79 43.1 79 42.55 78.6 42 78.2 42 77.6 42 76.3 64.3 67.2
L 101 52.2
Q 115.65 46.15 116.5 46.5 118.3 47.1 153.5 61.5 166.85 66.9 179 71.95 189.6 76.3 189.9 76.5 190.25 76.85 189.7 78.4 Z"/>
</g>

<g id="Layer0_0_MEMBER_1_FILL">
<path fill="#000000" stroke="none" d="
M 117.7 77.2
Q 111.95 76.9 111.5 78.2 111 79.4 110.8 90
L 110.5 100.5 107.8 100.8
Q 105.2 101.1 105.1 102.05 105 103 107.5 104 109.75 104.85 114.9 103.6 120 102.4 121.8 100.6 122.85 99.65 123.2 97.2 123.5 94.75 123.5 88.2
L 123.5 77.5 117.7 77.2 Z"/>
</g>

<g id="Layer0_0_MEMBER_2_FILL">
<path fill="#000000" stroke="none" d="
M 77 127.2
L 77 146.7
Q 77 161.2 77.3 163.95 77.65 166.7 79.5 168.5 83.95 173.1 88 169 89.4 167.6 89.7 164.3 90 161.1 90 147
L 90 127 142 127 142.5 168.4 145.3 170
Q 147.1 171 148 171 148.95 171 150.8 170
L 153.5 168.4 154 127.2 157 126.7
Q 159.8 126.1 161.5 123.55 163.2 121.05 162.6 118.4 162.05 116.3 160.8 115.4 159.15 114.3 154.85 113.8 148 113.05 115.8 113.1 76.8 113.3 74.5 113.7 68.95 115.05 69 120.15 69.05 125.25 74.6 126.6
L 77 127.2 Z"/>
</g>
</defs>

<g transform="matrix( 2.43463134765625, 0, 0, 2.43463134765625, -48.05,27.2) ">
<use xlink:href="#Layer0_0_MEMBER_0_FILL"/>
</g>

<g transform="matrix( 2.43463134765625, 0, 0, 2.43463134765625, -48.05,27.2) ">
<use xlink:href="#Layer0_0_MEMBER_1_FILL"/>
</g>

<g transform="matrix( 2.43463134765625, 0, 0, 2.43463134765625, -48.05,27.2) ">
<use xlink:href="#Layer0_0_MEMBER_2_FILL"/>
</g>
</svg>
