
<svg xmlns="http://www.w3.org/2000/svg" version="1.1" xmlns:xlink="http://www.w3.org/1999/xlink" preserveAspectRatio="none" x="0px" y="0px" width="1806px" height="330px" viewBox="0 0 1806 330">
<defs>
<g id="Layer1_0_MEMBER_0_MEMBER_0_FILL">
<path fill="#000000" stroke="none" d="
M 1107 92.75
L 1089.25 92.75 1089.25 162.35 1107 162.35 1107 92.75
M 1087.15 71.7
Q 1087.15 76.1 1090.4 79.35 1093.55 82.5 1098.15 82.5 1102.85 82.5 1106.05 79.35 1109.4 76.1 1109.4 71.7 1109.4 67 1106.05 63.9 1102.8 60.7 1098.15 60.7 1093.6 60.7 1090.4 63.95 1087.15 67.2 1087.15 71.7
M 1074.8 83.25
L 1074.8 67.95 1024.3 67.95 1024.3 162.35 1042.55 162.35 1042.55 122.6 1073 122.6 1073 107.6 1042.55 107.6 1042.55 83.25 1074.8 83.25
M 1166.15 91.45
Q 1157.55 91.45 1151.65 95.25 1145.65 99.1 1142.4 105.25
L 1142.3 105.25 1143.05 98.85 1143.25 92.75 1126.4 92.75 1126.4 162.35 1144.15 162.35 1144.15 128.75
Q 1144.15 124.25 1145.5 120.1 1146.7 116.05 1148.9 113 1151.1 110 1154.15 108.2 1157.1 106.35 1160.55 106.35 1165.45 106.35 1167.3 109.5 1169.15 112.6 1169.15 117.85
L 1169.15 162.35 1186.9 162.35 1186.9 113.5
Q 1186.9 109.1 1185.9 104.85 1184.75 100.9 1182.4 97.95 1180 94.95 1176.05 93.1 1172 91.45 1166.15 91.45
M 1238.4 91.6
Q 1229.6 91.6 1222.9 94.5 1216.1 97.4 1211.3 102.7 1206.55 107.9 1204.15 115.25 1201.55 122.6 1201.55 131.25 1201.55 146.2 1207.9 155.1 1214.15 163.95 1226.9 163.95 1234.8 163.95 1240.5 160.3 1246.1 156.55 1248.9 150.6
L 1249.15 150.6 1248.4 162.35 1265 162.35 1265 60.2 1247.15 60.2 1247.15 92.1 1238.4 91.6
M 1237.8 105.75
L 1242.55 106 1247.15 106.75 1247.15 126.25
Q 1247.15 130.9 1246.15 134.75 1245.2 138.8 1243.25 142.05 1241.3 145.1 1238.55 147.05 1235.65 148.95 1232.25 148.95 1220.3 148.95 1220.3 129.25 1220.3 116.5 1225.25 111 1230.15 105.75 1237.8 105.75
M 1326.55 92.6
Q 1319.8 93.85 1314.4 95.85
L 1317.55 110
Q 1321.7 107.95 1327.15 106.5 1332.4 105.1 1337.3 105.1 1344.95 105.1 1347.9 107.85 1350.9 110.7 1350.9 116.1
L 1350.9 119.5
Q 1341.8 119.5 1334.3 121 1326.9 122.5 1321.65 125.5 1316.3 128.5 1313.5 133.1 1310.65 137.7 1310.65 143.95 1310.65 152.5 1315.8 158.1 1321 163.75 1330.5 163.75 1338.2 163.75 1344.25 160.05 1350.1 156.35 1352.75 150.3
L 1352.9 150.5 1352.15 162.35 1369.15 162.35 1368.8 153.35 1368.75 114.75
Q 1368.75 109.45 1367.3 105 1366 100.6 1362.8 97.6 1359.4 94.6 1354.05 92.95 1348.35 91.25 1340.3 91.25 1333.45 91.25 1326.55 92.6
M 1339.5 132
Q 1344 131.1 1350.9 131.1
L 1350.9 133.25
Q 1350.9 136.5 1349.8 139.45 1348.85 142.4 1346.8 144.75 1344.9 146.95 1342.05 148.45 1339.35 149.95 1335.9 149.95 1331.95 149.95 1329.75 147.6 1327.55 145.35 1327.55 141.85 1327.55 139.7 1328.55 137.7 1329.6 135.8 1332.3 134.25 1334.85 132.85 1339.5 132
M 1492.4 92.75
L 1480.3 92.75 1480.3 106.7 1492.4 106.7 1492.4 141.95
Q 1492.4 148 1493.4 152.3 1494.4 156.35 1496.65 159 1499.15 161.65 1502.9 162.6 1506.9 163.75 1512.55 163.75
L 1520.3 163.2 1527.75 161.8 1526.4 147.8
Q 1523 148.8 1518.4 148.8 1513.8 148.8 1512 146.35 1510.2 144 1510.25 137.3
L 1510.25 106.7 1527.15 106.7 1527.15 92.75 1510.25 92.75 1510.25 66.65 1492.4 71.35 1492.4 92.75
M 1467.55 68
L 1458.9 66.85 1450.4 66.35
Q 1441.85 66.35 1435.25 68.45 1428.7 70.5 1424.05 74.25 1419.55 78 1417.15 83.25 1414.75 88.35 1414.75 94.75 1414.75 102.65 1417.65 107.35 1420.7 112.15 1425.05 115.1 1429.55 118.15 1434.65 120
L 1444.3 123.85
Q 1448.75 125.9 1451.65 128.5 1454.65 131.15 1454.65 135.6 1454.65 139 1453.4 141.3 1452.1 143.65 1449.9 145.05 1447.75 146.55 1444.9 147.3
L 1438.75 148
Q 1433.3 148 1427.9 146.95 1422.85 145.85 1418.05 143.95
L 1416.05 161.45
Q 1425.65 163.95 1438 163.95 1446.1 163.95 1452.9 161.6 1459.7 159.25 1464.4 155.3 1469.15 151.3 1471.9 145.55 1474.5 139.9 1474.5 133.35 1474.5 126.1 1471.55 121.25 1468.65 116.55 1464.05 113.25 1459.2 109.95 1454.4 108.2
L 1444.65 104.25
Q 1440.15 102.15 1437.15 99.6 1434.25 97 1434.25 92.75 1434.25 87.75 1438 84.5 1441.75 81.35 1449.65 81.35
L 1457.9 82 1465.9 84 1467.55 68
M 1572.25 91.45
Q 1564.1 91.45 1557.75 94.25 1551.15 97.05 1546.55 101.95 1541.8 106.95 1539.25 113.75 1536.65 120.65 1536.65 128.75 1536.65 138.05 1538.9 144.7 1541.3 151.35 1545.5 155.6 1549.6 159.85 1555.65 161.8 1561.65 163.75 1569.15 163.75 1576.9 163.75 1583.5 161.05 1589.9 158.2 1594.8 153.25 1599.55 148.1 1602.05 141.35 1604.65 134.5 1604.65 126.25 1604.65 108.3 1595.9 99.85 1587.05 91.45 1572.25 91.45
M 1586.25 127.2
Q 1586.25 137.75 1581.8 143.2 1577.4 148.5 1570.65 148.5 1555.15 148.5 1555.15 126.85 1555.15 121.45 1556.4 117.7 1557.7 113.95 1560.05 111.35 1562.25 108.8 1565.15 107.6 1567.85 106.35 1570.9 106.35 1578.95 106.35 1582.55 111.75 1586.25 117.1 1586.25 127.2
M 1696.55 91.25
Q 1688.7 91.25 1682.55 94.1 1676.45 96.9 1672.4 101.75 1668.3 106.55 1666.05 113.45 1663.9 120.35 1663.9 128.2 1663.9 146.7 1672.8 155.3 1681.7 163.75 1698.15 163.75 1704.4 163.75 1711.15 162.75 1717.65 161.6 1723.4 159.3
L 1721.4 145.7
Q 1711.4 149.95 1701.25 149.95 1682 149.95 1682.05 130.6
L 1725.25 130.6 1725.8 122.35
Q 1725.8 115.9 1724 110.25 1722.3 104.6 1718.65 100.35 1715.05 96.1 1709.55 93.7 1703.95 91.25 1696.55 91.25
M 1686.65 108.2
Q 1690.4 104.45 1696 104.45 1701.7 104.45 1705 108.1 1708.3 111.8 1708.05 118.6
L 1682.4 118.6
Q 1683.1 111.9 1686.65 108.2
M 1649.05 92.1
Q 1645.3 93.3 1642.75 95.35 1640 97.6 1638.05 100.5
L 1634.9 106.75 1634.65 106.75 1635.65 99.25 1635.9 92.75 1619.05 92.75 1619.05 162.35 1636.8 162.35 1636.8 133.95
Q 1636.8 105.05 1656.3 108.95
L 1657.15 91.45
Q 1652.8 91 1649.05 92.1 Z"/>
</g>

<g id="Layer1_1_FILL">
<path fill="#FFCC00" stroke="none" d="
M 952.8 29.75
Q 948.7630859375 29.75 944.5 29.75 943.0767578125 29.75 941.65 29.75
L 922.7 29.75
Q 918.6 29.75 914.5 29.75 907.153125 29.75 899.9 29.75 894.8 29.75 889.75 29.75 236.95 29.65 222.8 29.65 178.9490234375 29.5787109375 120.2 29.55 108.4625 29.55 96.2 29.55 95.3513671875 29.55 94.5 29.55 94.4 30.4 94.3 30.5 88.5 32.05 86.4 37.85 86.3 38.05 86.1 38.2 85.75 38.4 85.55 38.6 85.45 105 85.45 237.9 85.65 238 86 238.2 86.3 238.35 86.4 238.65 87.95 242.7 91.2 244.8 93.408203125 246.2958984375 96.2 246.7
L 96.2 246.95
Q 98.61484375 246.9505859375 100.7 246.9
L 108.6 246.9
Q 109.8294921875 246.9291015625 111 246.9 112.344921875 247.0546875 113.45 247.55 114.85 248.1 116.15 249.4 120.9 253.9 130.4 263.1 136.3 268.75 147.8 279.6 150.55 282.1 155.9 287.25 160.65 291.75 164.05 294.75 165.45 296.05 167.75 297.65 169.05 298.55 171.7 300.3 174.45 300.5 179.9 300.5 180 300.1 180 299.95 180.1 299.65 180.2 299.65 182.5 299.4 184.8 297.7 185.8 297 188.55 294.4 192.95 290.25 199.8 283.8 209.55 274.35 210.9 273.05 216.05 268.2 222.8 261.9 225.2 259.6 227.85 257.15 233.9 251.45 237.95 248.05 238.5 247.55 239.35 247.3 240.2 247 240.9 247 245.05 247 889.75 247 901.9970703125 247 914.5 247 918.6 247 922.7 247
L 936.9 246.95
Q 939.276171875 247 941.65 247 943.0767578125 247 944.5 247
L 944.5 246.9
Q 946.4337890625 246.9 948.45 246.9 953.55 246.9 956.5 244.9 959.4 242.85 961.45 238.1 961.45 238 961.65 237.8 961.8 237.7 962.1 237.55 962.25 171 962.25 38.2 961.8 37.95 961.65 37.75 961.25 37.55 961.15 37.3 959.05 32.05 953.35 30.4 953.25 30.4 953.05 30.2 952.9 29.95 952.8 29.75 Z"/>
</g>

<g id="Layer1_1_MEMBER_0_MEMBER_0_MEMBER_0_MEMBER_0_MEMBER_0_FILL">
<path fill="#000000" stroke="none" d="
M 143.35 34.7
L 128.7 19.7 55.5 19.7 55.5 145.2
Q 55.5 156 49.2 161.7 42.95 167.45 30.4 167.45 24.1 167.45 15.7 163.3
L 15.7 181.2
Q 18.4 182.35 24.75 189.4 28.2 193.35 30.4 196.2 38.05 199.4 44.1 200.75 52.75 202.7 63.4 202.7 92.75 202.7 116.85 190.05 143.35 176.1 143.35 155.55
L 143.35 34.7
M 309.2 34.7
L 294.55 19.7 264.8 19.7 264.8 142.9
Q 264.8 153.85 260.85 161 255.8 170.1 245.4 170.1 243.95 170.1 242.2 169.75 240.75 164.35 240.75 158
L 240.75 34.7 226.05 19.7 153.3 19.7 153.3 130.3
Q 153.3 155.15 166.3 169.2
L 179.55 182.55
Q 196.5 202.9 238.95 202.9 278.1 202.9 294.4 188.5 309.2 175.3 309.2 145.45
L 309.2 34.7
M 551.8 34.55
L 537.15 19.55 467.85 19.55 434.9 83.15 412.35 34.6 397.65 19.55 321 19.55 321 184.2 335.7 199.25 365.85 199.25 365.85 119.45 396 184.2 410.55 199.25 434.15 199.25 464.3 135.45 464.3 184.2 478.85 199.25 551.8 199.25 551.8 34.55
M 738.8 74.85
Q 738.8 60.8 730.15 51.85
L 715.95 37.3
Q 706.9 27.6 687.2 23.3 670.6 19.7 644.55 19.7
L 563.4 19.7 563.4 184.45 578 199.5 659.45 199.5
Q 703 199.5 724.4 186.55 744.65 174.35 744.7 150.9 744.8 139.9 743 133.15 740.7 124.2 734.5 118.5
L 720.25 104.2 720.25 104
Q 730.45 100.1 734.9 92.25 738.8 85.45 738.8 74.85
M 668.85 51.8
Q 669.85 55.2 669.85 59.95 669.85 66 666.75 71.25 663.6 76.6 658.05 79.7 655.1 81.45 651.1 82.55
L 651.1 50.55
Q 652.05 50.55 653.95 50.3 655.7 50 656.7 50 663.4 50 668.85 51.8
M 651.1 114.5
Q 653.5 114.35 655.55 114.35 662.4 114.5 668.2 117.7 672.25 125.95 672.25 135.55 672.25 143.2 669.5 149.6 666.8 156.1 661.75 160.7 656.7 165.3 651.1 167.25
L 651.1 114.5
M 946.45 85.55
Q 940 71.05 927.95 59.35
L 917.05 48.25
Q 903.25 33.25 883.85 24.9 863.7 16.25 841.1 16.25 821.3 16.25 803.15 23 785.5 29.6 772.2 41.4 758.65 53.3 751.3 68.6 743.65 84.6 743.65 102 743.65 118.1 750.25 133 756.65 147.45 768.35 159
L 782.5 173.55
Q 796.15 187.2 814.9 194.85 834.2 202.7 855.85 202.7 875.6 202.7 893.75 196 911.25 189.45 924.7 177.6 938.2 165.75 945.6 150.4 953.25 134.5 953.25 117 953.25 100.55 946.45 85.55
M 855.85 47.6
L 857.35 47.6
Q 863.15 64 863.15 102 863.15 135.35 858.7 151.85 853.45 171.4 841.1 171.4
L 839.5 171.3
Q 833.85 154.9 833.85 116.95 833.85 83.3 838.25 67.1 843.45 47.6 855.85 47.6 Z"/>
</g>

<g id="Layer1_1_MEMBER_0_MEMBER_1_MEMBER_0_MEMBER_0_MEMBER_0_FILL">
<path fill="#FFFFFF" stroke="none" d="
M 1089.5 447.55
L 1089.5 492.8 1124.25 492.8 1124.25 414.25 1091.2 414.25 1073.55 448.35 1057.7 414.25 1021.15 414.25 1021.15 492.8 1035.6 492.8 1035.6 446.85 1056.95 492.8 1068.1 492.8 1089.5 447.55
M 1213.45 433.5
Q 1213.45 422.7 1202.4 418.15 1193.4 414.35 1175.45 414.35
L 1136.75 414.35 1136.75 492.95 1175.6 492.95
Q 1196.35 492.95 1206.55 486.8 1216.25 481 1216.25 469.75 1216.3 460.95 1213.25 456.55 1209.1 450.5 1197.8 448.95 1206.5 447.85 1210.25 443.6 1213.45 440 1213.45 433.5
M 1181.9 442.95
Q 1179.8 444.25 1176.85 444.7 1175.35 444.95 1171.6 445.1
L 1171.6 421.9
Q 1172.05 421.9 1172.95 421.8 1173.8 421.65 1174.25 421.65 1180.65 421.65 1184.2 424.85 1187.55 428 1187.55 433.55 1187.55 436.4 1186.05 438.95 1184.45 441.55 1181.9 442.95
M 1171.65 452.4
L 1173 452.3
Q 1175.55 452.25 1177.65 453 1180 453.85 1182.35 455.7 1185.35 458.1 1187.05 461.7 1188.7 465.3 1188.7 469.6 1188.7 473.25 1187.35 476.3 1186.1 479.4 1183.7 481.6 1181.05 484.05 1177.95 484.9 1175.2 485.65 1171.65 485.25
L 1171.65 452.4
M 941.15 467.1
Q 941.15 480.8 949.4 487.65 957.8 494.6 975 494.6 993.75 494.6 1001.45 487.75 1008.55 481.4 1008.55 467.1
L 1008.55 414.35 994.35 414.35 994.35 473.1
Q 994.35 478.35 992.45 481.75 990.05 486.1 985.1 486.1 980.25 486.1 977.75 481.75 975.85 478.3 975.85 473.15
L 975.85 414.35 941.15 414.35 941.15 467.1
M 929.45 414.35
L 894.5 414.35 894.5 474.2
Q 894.5 479.35 891.5 482.05 888.5 484.8 882.55 484.8 879.5 484.8 875.55 482.85
L 875.55 491.4
Q 879.2 492.9 882.05 493.5 886.2 494.45 891.3 494.45 905.3 494.45 916.8 488.4 929.45 481.75 929.45 471.95
L 929.45 414.35
M 1312.1 437.65
Q 1308.5 430.3 1302.1 424.7 1295.7 419.05 1287.3 415.9 1278.7 412.7 1269.2 412.7 1259.8 412.7 1251.1 415.9 1242.7 419.05 1236.35 424.7 1229.9 430.35 1226.4 437.65 1222.75 445.3 1222.75 453.6 1222.75 461.9 1226.4 469.5 1229.85 476.75 1236.35 482.5 1242.8 488.15 1251.1 491.25 1259.8 494.45 1269.2 494.45 1278.65 494.45 1287.3 491.25 1295.6 488.2 1302.1 482.5 1308.55 476.85 1312.1 469.5 1315.7 461.9 1315.7 453.6 1315.7 445.3 1312.1 437.65
M 1269.2 420.45
Q 1275.1 420.45 1277.6 429.75 1279.75 437.65 1279.75 453.6 1279.75 469.5 1277.6 477.4 1275.1 486.7 1269.2 486.7 1263.35 486.7 1260.85 477.4 1258.75 469.65 1258.75 453.6 1258.75 437.55 1260.85 429.75 1263.35 420.45 1269.2 420.45 Z"/>
</g>

<path id="Layer1_1_MEMBER_0_MEMBER_1_MEMBER_1_MEMBER_0_1_STROKES" stroke="#FFCC00" stroke-width="0.05" stroke-linejoin="miter" stroke-linecap="butt" stroke-miterlimit="3" fill="none" d="
M 837.1849670410155 51.27451782226562
Q 818.9390930175781 51.27451782226562 802.2137084960938 57.4947021484375 786.1794555664063 63.43843383789062 773.6469360351563 74.40438842773438 761.1144165039062 85.55464477539063 754.4334777832031 99.5155029296875 747.383935546875 114.25964355468749 747.383935546875 130.293896484375 747.383935546875 146.3742248535156 754.4334777832031 161.02621459960938 761.1144165039062 174.98707275390626 773.6469360351563 186.1373291015625 786.2255310058594 197.10328369140626 802.2137084960938 203.00093994140627 818.8930175781251 209.22112426757815 837.1849670410155 209.22112426757815 855.5229919433594 209.22112426757815 872.1562255859375 203.00093994140627 888.0983276367186 197.1493591308594 900.722998046875 186.1373291015625 913.1172912597657 175.26352539062503 919.9825317382812 161.02621459960938 927.0320739746093 146.3742248535156 927.0320739746093 130.293896484375 927.0320739746093 114.25964355468749 919.9825317382812 99.5155029296875 913.1633666992187 85.37034301757812 900.722998046875 74.40438842773438 888.1444030761719 63.392358398437494 872.1562255859375 57.4947021484375 855.5229919433594 51.27451782226562 837.1849670410155 51.27451782226562 Z
M 837.1849670410155 66.20296020507813
Q 848.5656005859374 66.20296020507813 853.4035217285156 84.21845703125 857.4581604003905 99.28512573242188 857.4581604003905 130.293896484375 857.4581604003905 161.16444091796876 853.4035217285156 176.23110961914062 848.5656005859374 194.24660644531252 837.1849670410155 194.24660644531252 825.8043334960938 194.24660644531252 820.9664123535157 176.23110961914062 816.9117736816405 161.256591796875 816.9117736816405 130.293896484375 816.9117736816405 99.28512573242188 820.9664123535157 84.21845703125 825.8043334960938 66.20296020507813 837.1849670410155 66.20296020507813 Z
M 653.712567138672 68.5528076171875
Q 666.1068603515624 68.5528076171875 672.8799499511719 74.77299194335937 679.3765869140624 80.7167236328125 679.3765869140624 91.54445190429688 679.3765869140624 97.02742919921874 676.4738342285156 101.91142578125 673.5250061035157 106.84149780273437 668.502783203125 109.74425048828125 664.4020690917968 112.23232421875001 658.7347900390624 113.10775756835936 655.7859619140626 113.61458740234376 648.5981933593749 113.8910400390625
L 648.5981933593749 69.05963745117187
Q 649.6118530273437 69.05963745117187 651.1784179687501 68.78318481445312 652.9292846679688 68.5528076171875 653.712567138672 68.5528076171875 Z
M 581.2359008789061 54.453723144531246
L 581.2359008789061 206.31837158203126 656.2927917480469 206.31837158203126
Q 696.4244995117186 206.31837158203126 716.1447875976563 194.430908203125 734.805340576172 183.18850097656252 734.805340576172 161.48696899414062 734.9435668945313 144.5312072753906 729.0919860839844 135.9611755371094 721.1209350585938 124.25801391601563 699.2351013183594 121.35526123046874 715.9604858398437 119.14364013671876 723.2404052734374 110.9422119140625 729.4605895996093 103.98482055664063 729.4605895996093 91.49837646484374 729.4605895996093 70.67227783203124 708.0815856933594 61.733642578125 690.618994140625 54.453723144531246 656.0624145507812 54.453723144531246
L 581.2359008789061 54.453723144531246 Z
M 651.3166442871094 127.80582275390624
Q 656.0163391113282 127.66759643554688 660.3013549804688 129.1420104980469 664.816748046875 130.75465087890626 669.3321411132812 134.3946105957031 675.1837219238281 139.0021545410156 678.3629272460938 145.91347045898436 681.5882080078126 152.8247863769531 681.5882080078126 161.21051635742188 681.5882080078126 168.2139831542969 679.0540588378907 174.15771484375 676.5659851074219 180.05537109375 671.9123657226563 184.38646240234374 666.7979919433593 189.08615722656253 660.808184814453 190.744873046875 655.3712829589844 192.1732116699219 648.6442687988282 191.43600463867188
L 648.6442687988282 127.94404907226563 651.3166442871094 127.80582275390624 Z
M 357.90824584960933 54.315496826171874
L 357.90824584960933 206.0419189453125 385.78388671874995 206.0419189453125 385.78388671874995 117.30062255859376 427.02140502929683 206.0419189453125 448.63078613281243 206.0419189453125 489.9604553222656 118.63681030273436 489.9604553222656 206.0419189453125 557.0923706054688 206.0419189453125 557.0923706054688 54.315496826171874 493.2318115234375 54.315496826171874 459.135986328125 120.11122436523438 428.54189453125 54.315496826171874 357.90824584960933 54.315496826171874 Z
M 203.37122192382813 54.453723144531246
L 203.37122192382813 156.37259521484376
Q 203.37122192382813 182.86597290039066 219.3133239746094 196.04354858398438 235.57795410156248 209.54365234375 268.75227050781245 209.54365234375 304.8754150390625 209.54365234375 319.84993286132806 196.18177490234376 333.5343383789062 184.01785888671878 333.5343383789062 156.37259521484376
L 333.5343383789062 54.453723144531246 306.11945190429685 54.453723144531246 306.11945190429685 167.98360595703127
Q 306.11945190429685 178.07412719726562 302.4794921875 184.61683959960936 297.8719482421875 193.04864501953125 288.24218139648434 193.04864501953125 278.7967163085937 193.04864501953125 274.1430969238281 184.6629150390625 270.410986328125 178.12020263671877 270.410986328125 168.0757568359375
L 270.410986328125 54.453723144531246 203.37122192382813 54.453723144531246 Z
M 113.24766235351564 54.453723144531246
L 113.24766235351564 170.103076171875
Q 113.24766235351564 180.05537109375 107.44215698242186 185.30797119140624 101.49842529296876 190.6066467285156 90.11779174804687 190.6066467285156 84.22013549804687 190.6066467285156 76.61768798828125 186.78238525390628
L 76.61768798828125 203.277392578125
Q 83.25255126953124 206.08799438476564 89.24235839843749 207.42418212890624 97.12125854492189 209.22112426757815 106.98140258789061 209.22112426757815 133.93553466796877 209.22112426757815 156.2821228027344 197.5640380859375 180.70210571289064 184.70899047851566 180.70210571289064 165.77198486328126
L 180.70210571289064 54.453723144531246 113.24766235351564 54.453723144531246 Z"/>
</defs>

<g transform="matrix( 1.0467071533203125, 0, 0, 1.0467071533203125, -51.6,16.35) ">
<use xlink:href="#Layer1_0_MEMBER_0_MEMBER_0_FILL"/>
</g>

<g transform="matrix( 1.0467071533203125, 0, 0, 1.0467071533203125, -42,-7.7) ">
<use xlink:href="#Layer1_1_FILL"/>
</g>

<g transform="matrix( 0.9215087890625, 0, 0, 0.9215087890625, 62.3,36.4) ">
<use xlink:href="#Layer1_1_MEMBER_0_MEMBER_0_MEMBER_0_MEMBER_0_MEMBER_0_FILL"/>
</g>

<g transform="matrix( 1.9322052001953125, 0, 0, 1.9322052001953125, -1614.65,-745.55) ">
<use xlink:href="#Layer1_1_MEMBER_0_MEMBER_1_MEMBER_0_MEMBER_0_MEMBER_0_FILL"/>
</g>

<g transform="matrix( 0.9215087890625, 0, 0, 0.9215087890625, 62.15,36.3) ">
<use xlink:href="#Layer1_1_MEMBER_0_MEMBER_1_MEMBER_1_MEMBER_0_1_STROKES" transform="matrix( 1.085174560546875, 0, 0, 1.085174560546875, -67.4,-39.35) "/>
</g>
</svg>
