<?xml version="1.0" standalone="no"?>
<!DOCTYPE svg PUBLIC "-//W3C//DTD SVG 20010904//EN"
 "http://www.w3.org/TR/2001/REC-SVG-20010904/DTD/svg10.dtd">
<svg version="1.0" xmlns="http://www.w3.org/2000/svg"
 width="486.000000pt" height="552.000000pt" viewBox="0 0 486.000000 552.000000"
 preserveAspectRatio="xMidYMid meet">

<g transform="translate(0.000000,552.000000) scale(0.100000,-0.100000)"
fill="#000000" stroke="none">
<path d="M1788 4879 c-107 -15 -207 -88 -249 -182 -36 -79 -34 -194 4 -262 17
-31 301 -341 757 -825 l729 -775 -43 -45 c-202 -209 -1378 -1466 -1407 -1503
-150 -188 -32 -462 212 -496 75 -10 137 1 209 37 60 30 25 -6 1154 1192 318
338 590 631 603 652 40 59 56 141 42 214 -6 34 -21 78 -32 97 -24 39 -1645
1766 -1710 1822 -71 61 -169 87 -269 74z"/>
</g>
</svg>
