<svg class="img-fluid" id="outputsvg" xmlns="http://www.w3.org/2000/svg" style="transform: matrix(1, 0, 0, 1, 0, 0); transform-origin: 50% 50%; cursor: move; transition: transform 200ms ease-in-out 0s;" width="404" height="374" viewBox="0 0 4040 3740"><g id="l15srHIq4PrenhKPEASAnfM" fill="rgb(0,0,0)" style="transform: none;"><g><path id="ptAGQB8zM" d="M2930 3325 c-98 -31 -163 -84 -412 -340 -276 -283 -287 -300 -295 -440 -3 -44 -1 -99 5 -122 l9 -41 -66 -66 c-37 -36 -70 -66 -74 -66 -3 0 -33 17 -64 37 -108 70 -219 110 -368 134 -126 21 -146 22 -257 11 -236 -24 -450 -124 -613 -287 -221 -220 -331 -526 -296 -817 41 -333 222 -607 506 -765 273 -153 572 -175 865 -66 395 147 664 564 636 985 -12 183 -52 319 -133 455 -24 39 -43 75 -43 78 0 4 23 36 52 72 40 51 56 64 72 60 143 -34 163 -36 225 -26 115 18 148 43 427 319 281 278 302 307 325 439 30 167 -67 349 -226 427 -50 24 -74 29 -145 31 -52 2 -102 -3 -130 -12z m170 -300 c15 -16 24 -41 28 -75 l5 -51 -199 -201 c-233 -234 -262 -258 -316 -258 -54 0 -98 43 -98 96 0 35 12 50 207 248 257 261 317 300 373 241z m-1394 -919 c125 -42 264 -141 353 -250 13 -16 39 -58 58 -92 158 -293 83 -662 -176 -867 -135 -106 -242 -146 -411 -154 -98 -5 -128 -2 -193 16 -205 56 -378 196 -462 373 -51 109 -69 187 -69 308 0 255 127 467 362 605 115 67 179 83 333 84 117 1 145 -2 205 -23z"></path></g></g></svg>